<?xml version="1.0" encoding="utf-8"?>
<!-- Generator: Adobe Illustrator 16.0.0, SVG Export Plug-In . SVG Version: 6.00 Build 0)  -->
<!DOCTYPE svg PUBLIC "-//W3C//DTD SVG 1.1//EN" "http://www.w3.org/Graphics/SVG/1.1/DTD/svg11.dtd">
<svg version="1.1" id="Capa_1" xmlns="http://www.w3.org/2000/svg" xmlns:xlink="http://www.w3.org/1999/xlink" x="0px" y="0px"
	 width="1431.299px" height="1170.261px" viewBox="0 -388.739 1431.299 1170.261"
	 enable-background="new 0 -388.739 1431.299 1170.261" xml:space="preserve">
<g>
	<g>
		<path fill="#FFFFFF" d="M453.003,584.804c10.291,0,18.355-8.064,18.355-18.355c0-10.29-8.065-18.356-18.355-18.356
			s-18.356,8.066-18.356,18.356C434.647,576.739,442.713,584.804,453.003,584.804L453.003,584.804z M453.003,553.273
			c7.445,0,13.176,5.729,13.176,13.175c0,7.445-5.729,13.176-13.176,13.176c-7.447,0-13.176-5.729-13.176-13.176
			S445.557,553.273,453.003,553.273z"/>
	</g>
	<g>
		<path fill="#FFFFFF" d="M320.114,577.362c-0.717-0.421-1.645-0.399-2.34,0.063l-0.027,0.019l-0.026,0.017
			c-4.37,2.621-8.845,2.621-13.214,0l-0.027-0.017l-0.027-0.019c-0.729-0.485-1.713-0.485-2.441,0
			c-0.864,0.576-1.37,1.363-1.37,2.423v18.131c0,1.618,0.973,2.591,2.591,2.591h15.765c1.618,0,2.592-0.974,2.592-2.591v-18.131
			C321.585,578.989,320.716,577.978,320.114,577.362L320.114,577.362z M305.819,595.389v-11.186l1.542,0.22
			c2.578,0.368,4.922,0.368,7.501,0l1.542-0.22v11.186H305.819z"/>
	</g>
	<g>
		<path fill="#FFFFFF" d="M496.359,710.93c1.618,0,2.59-0.973,2.59-2.59v-22.466c0-1.161-0.614-1.838-1.618-2.34
			c-1.024-0.512-1.984-0.254-2.774,0.536l-22.467,22.466c-0.791,0.791-1.047,1.751-0.535,2.775l0.065,0.133l0.036,0.145
			c0.242,0.967,1.341,1.341,2.237,1.341H496.359L496.359,710.93z M480.09,705.749l13.678-13.678v13.678H480.09z"/>
	</g>
	<g>
		<path fill="#FFFFFF" d="M473.893,710.93c0.793,0,1.25-0.23,1.804-0.786l22.466-22.466c0.556-0.554,0.787-1.01,0.787-1.803v-24.832
			c0-1.617-0.973-2.59-2.59-2.59h-30.743c-0.794,0-1.25,0.231-1.804,0.787l-47.297,47.297c-0.791,0.791-1.048,1.751-0.535,2.776
			l0.066,0.132l0.035,0.145c0.242,0.967,1.343,1.341,2.237,1.341L473.893,710.93L473.893,710.93z M424.516,705.749l42.117-42.116
			h27.136v21.225l-20.894,20.893L424.516,705.749L424.516,705.749z"/>
	</g>
	<g>
		<path fill="#FFFFFF" d="M418.319,710.93c0.266,0,1.016-0.178,1.156-0.436l0.098-0.195l47.452-47.453
			c0.791-0.791,1.048-1.751,0.536-2.775l-0.066-0.132l-0.035-0.145c-0.242-0.968-1.342-1.341-2.236-1.341h-55.574
			c-0.794,0-1.249,0.231-1.804,0.787l-47.296,47.297c-0.824,0.823-0.693,2.016-0.434,3.053c0.242,0.967,1.342,1.341,2.236,1.341
			L418.319,710.93L418.319,710.93z M368.548,705.749l42.116-42.116h48.359l-42.116,42.116H368.548z"/>
	</g>
	<g>
		<path fill="#FFFFFF" d="M362.351,710.93c0.793,0,1.249-0.231,1.803-0.786l47.297-47.297c0.791-0.791,1.047-1.751,0.535-2.775
			l-0.065-0.132l-0.036-0.145c-0.242-0.968-1.341-1.341-2.236-1.341h-55.574c-0.793,0-1.25,0.232-1.804,0.787l-47.297,47.297
			c-0.823,0.823-0.692,2.015-0.434,3.053c0.242,0.967,1.343,1.341,2.237,1.341h55.574V710.93z M312.974,705.749l42.116-42.116
			h48.358l-42.116,42.116H312.974z"/>
	</g>
	<g>
		<path fill="#FFFFFF" d="M306.776,710.93c0.266,0,1.018-0.178,1.157-0.436l0.098-0.195l47.452-47.453
			c0.791-0.791,1.047-1.751,0.536-2.775l-0.066-0.132l-0.035-0.145c-0.242-0.968-1.342-1.341-2.237-1.341h-55.574
			c-0.594,0-1.388,0.371-1.804,0.787l-30.35,30.349c-0.555,0.555-0.786,1.01-0.786,1.805v16.947c0,1.617,0.973,2.59,2.59,2.59
			L306.776,710.93L306.776,710.93z M270.347,705.749v-13.34l28.775-28.776h48.359l-42.116,42.116H270.347z"/>
	</g>
	<g>
		<path fill="#FFFFFF" d="M267.079,693.928c0.167,0.056,0.523,0.055,0.677,0.055c0.793,0,1.25-0.232,1.804-0.787l30.349-30.35
			c0.79-0.791,1.047-1.751,0.535-2.775l-0.065-0.132l-0.036-0.145c-0.242-0.968-1.343-1.341-2.236-1.341h-30.349
			c-1.618,0-2.591,0.973-2.591,2.59v30.349c0,0.812,0.661,2.006,1.441,2.266l0.303,0.101L267.079,693.928L267.079,693.928z
			 M270.347,663.633h21.561l-21.561,21.562V663.633z"/>
	</g>
	<g>
		<path fill="#FFFFFF" d="M496.359,710.93c1.618,0,2.59-0.973,2.59-2.59v-47.297c0-1.617-0.973-2.59-2.59-2.59H267.756
			c-1.618,0-2.59,0.973-2.59,2.59v47.297c0,1.617,0.973,2.59,2.59,2.59H496.359L496.359,710.93z M270.347,705.749v-42.116h223.422
			v42.116H270.347z"/>
	</g>
	<g>
		<path fill="#FFFFFF" d="M471.656,646.525c0.242,0.968,1.341,1.342,2.237,1.342h22.466c1.618,0,2.59-0.974,2.59-2.59v-22.467
			c0-1.16-0.614-1.837-1.618-2.339c-1.024-0.512-1.984-0.255-2.774,0.536l-22.467,22.466c-0.79,0.791-1.047,1.751-0.535,2.775
			l0.065,0.133L471.656,646.525L471.656,646.525z M480.09,642.687l13.678-13.678v13.678H480.09z"/>
	</g>
	<g>
		<path fill="#FFFFFF" d="M473.893,647.867c0.793,0,1.25-0.232,1.804-0.787l22.466-22.466c0.556-0.555,0.787-1.01,0.787-1.805
			v-24.83c0-1.618-0.973-2.592-2.59-2.592h-30.743c-0.794,0-1.249,0.232-1.804,0.787l-47.297,47.298
			c-0.791,0.79-1.048,1.75-0.535,2.775l0.066,0.133l0.035,0.145c0.242,0.968,1.342,1.341,2.237,1.341L473.893,647.867
			L473.893,647.867z M424.516,642.687l42.117-42.116h27.136v21.224l-20.894,20.893H424.516z"/>
	</g>
	<g>
		<path fill="#FFFFFF" d="M418.319,647.867c0.264,0,1.016-0.178,1.156-0.437l0.098-0.195l47.452-47.452
			c0.791-0.79,1.048-1.751,0.536-2.776l-0.066-0.133l-0.035-0.144c-0.242-0.968-1.342-1.342-2.236-1.342h-55.574
			c-0.794,0-1.249,0.232-1.804,0.787l-47.296,47.298c-0.791,0.79-1.048,1.75-0.536,2.775l0.065,0.133l0.036,0.145
			c0.242,0.968,1.341,1.341,2.236,1.341H418.319L418.319,647.867z M368.548,642.687l42.116-42.116h48.359l-42.116,42.116H368.548z"
			/>
	</g>
	<g>
		<path fill="#FFFFFF" d="M362.351,647.867c0.793,0,1.249-0.232,1.803-0.787l47.297-47.297c0.791-0.791,1.047-1.751,0.535-2.776
			l-0.065-0.133l-0.036-0.144c-0.242-0.968-1.341-1.342-2.236-1.342h-55.574c-0.793,0-1.25,0.232-1.804,0.787l-47.297,47.298
			c-0.79,0.79-1.047,1.75-0.535,2.775l0.066,0.133l0.035,0.145c0.242,0.968,1.342,1.342,2.236,1.342L362.351,647.867
			L362.351,647.867z M312.974,642.687l42.116-42.116h48.358l-42.116,42.116H312.974z"/>
	</g>
	<g>
		<path fill="#FFFFFF" d="M306.776,647.867c0.266,0,1.018-0.178,1.157-0.437l0.098-0.195l47.452-47.452
			c0.791-0.791,1.047-1.751,0.536-2.776l-0.066-0.132l-0.035-0.144c-0.242-0.969-1.342-1.343-2.237-1.343h-55.574
			c-0.594,0-1.388,0.372-1.804,0.787l-30.35,30.35c-0.554,0.555-0.786,1.01-0.786,1.804v16.948c0,1.618,0.973,2.59,2.59,2.59
			H306.776L306.776,647.867z M270.347,642.687v-13.341l28.775-28.774h48.359l-42.116,42.117h-35.019V642.687z"/>
	</g>
	<g>
		<path fill="#FFFFFF" d="M267.079,630.865c0.167,0.055,0.523,0.054,0.677,0.054c0.793,0,1.25-0.231,1.804-0.787l30.349-30.349
			c0.79-0.79,1.047-1.751,0.535-2.776l-0.065-0.133l-0.036-0.144c-0.242-0.968-1.342-1.342-2.236-1.342h-30.349
			c-1.618,0-2.591,0.974-2.591,2.592v30.349c0,0.811,0.661,2.006,1.441,2.265l0.303,0.103L267.079,630.865L267.079,630.865z
			 M270.347,600.57h21.561l-21.561,21.561V600.57z"/>
	</g>
	<g>
		<path fill="#FFFFFF" d="M445.119,762.168c1.618,0,2.592-0.972,2.592-2.59V735.93c0-1.618-0.974-2.591-2.592-2.591H318.994
			c-1.617,0-2.59,0.973-2.59,2.591v23.648c0,1.617,0.973,2.59,2.59,2.59H445.119L445.119,762.168z M321.585,756.987v-18.469H442.53
			v18.469H321.585z"/>
	</g>
	<g>
		<path fill="#FFFFFF" d="M462.005,577.362c-0.717-0.421-1.646-0.4-2.341,0.063l-0.026,0.019l-0.027,0.017
			c-4.37,2.621-8.845,2.621-13.214,0l-0.028-0.017l-0.026-0.019c-0.729-0.485-1.713-0.485-2.442,0
			c-0.864,0.576-1.369,1.363-1.369,2.423v18.131c0,1.618,0.973,2.591,2.59,2.591h15.767c1.618,0,2.59-0.974,2.59-2.591v-18.131
			C463.477,578.989,462.606,577.978,462.005,577.362L462.005,577.362z M447.711,595.389v-11.186l1.542,0.22
			c2.577,0.368,4.922,0.368,7.5,0l1.542-0.22v11.186H447.711z"/>
	</g>
	<g>
		<path fill="#FFFFFF" d="M460.886,663.633c1.618,0,2.59-0.973,2.59-2.59v-15.766c0-1.618-0.973-2.591-2.59-2.591h-15.767
			c-1.617,0-2.59,0.973-2.59,2.591v15.766c0,1.618,0.973,2.59,2.59,2.59H460.886L460.886,663.633z M447.711,658.452v-10.585h10.585
			v10.585H447.711z"/>
	</g>
	<g>
		<path fill="#FFFFFF" d="M460.886,781.876c1.618,0,2.59-0.974,2.59-2.591V708.34c0-1.618-0.973-2.591-2.59-2.591h-15.767
			c-1.617,0-2.59,0.973-2.59,2.591v70.945c0,1.617,0.973,2.591,2.59,2.591H460.886L460.886,781.876z M447.711,776.695v-65.767
			h10.585v65.767H447.711z"/>
	</g>
	<g>
		<path fill="#FFFFFF" d="M318.994,663.633c1.618,0,2.592-0.973,2.592-2.59v-15.766c0-1.618-0.974-2.591-2.592-2.591H303.23
			c-1.618,0-2.591,0.973-2.591,2.591v15.766c0,1.618,0.973,2.59,2.591,2.59H318.994L318.994,663.633z M305.819,658.452v-10.585
			h10.585v10.585H305.819z"/>
	</g>
	<g>
		<path fill="#FFFFFF" d="M318.994,781.876c1.618,0,2.592-0.974,2.592-2.591V708.34c0-1.618-0.974-2.591-2.592-2.591H303.23
			c-1.618,0-2.591,0.973-2.591,2.591v70.945c0,1.617,0.973,2.591,2.591,2.591H318.994L318.994,781.876z M305.819,776.695v-65.767
			h10.585v65.767H305.819z"/>
	</g>
	<g>
		<path fill="#FFFFFF" d="M311.112,584.804c10.291,0,18.356-8.064,18.356-18.355c0-10.29-8.066-18.356-18.356-18.356
			s-18.355,8.066-18.355,18.356C292.756,576.551,301.029,584.804,311.112,584.804L311.112,584.804z M311.112,553.273
			c7.446,0,13.175,5.729,13.175,13.175c0,7.445-5.729,13.176-13.175,13.176c-7.445,0-13.175-5.73-13.175-13.176
			C297.937,559.187,303.875,553.273,311.112,553.273z"/>
	</g>
	<g>
		<path fill="#FFFFFF" d="M496.359,647.867c1.618,0,2.59-0.974,2.59-2.59v-47.298c0-1.617-0.973-2.591-2.59-2.591H267.756
			c-1.618,0-2.59,0.974-2.59,2.591v47.298c0,1.617,0.973,2.59,2.59,2.59H496.359L496.359,647.867z M270.347,642.687V600.57h223.422
			v42.116H270.347z"/>
	</g>
</g>
<g>
	<path fill="#FFFFFF" d="M698.44,756.198h93.022l-35.948-155.144c-0.315-1.577-1.576-2.521-3.153-2.521h-15.136
		c-1.576,0-2.838,0.945-3.153,2.521L698.44,756.198L698.44,756.198z M795.245,762.505H694.341c-0.946,0-1.894-0.314-2.522-1.261
		c-0.631-0.631-0.631-1.577-0.631-2.523l36.895-159.242c0.945-4.1,4.729-7.253,9.145-7.253h15.136c4.415,0,8.199,3.153,9.146,7.253
		l36.894,159.242c0.315,0.946,0,1.894-0.631,2.523C797.139,762.189,796.192,762.505,795.245,762.505z"/>
	<path fill="#FFFFFF" d="M691.187,762.505c-3.469,0-6.307,2.838-6.307,6.308c0,3.469,2.838,6.307,6.307,6.307H798.4
		c3.469,0,6.308-2.838,6.308-6.307c0-3.47-2.839-6.308-6.308-6.308H691.187L691.187,762.505z M798.4,781.425H691.187
		c-6.938,0-12.613-5.676-12.613-12.612c0-6.938,5.677-12.613,12.613-12.613H798.4c6.938,0,12.613,5.676,12.613,12.613
		C811.013,775.749,805.337,781.425,798.4,781.425z"/>
	<path fill="#FFFFFF" d="M720.829,658.446h47.93l-5.676-25.228H726.82L720.829,658.446L720.829,658.446z M772.858,664.752h-55.813
		c-0.946,0-1.894-0.314-2.523-1.261c-0.63-0.63-0.944-1.893-0.63-2.522l7.252-31.533c0.314-1.576,1.577-2.522,3.153-2.522h41.309
		c1.577,0,2.838,0.946,3.153,2.522l7.253,31.533c0.314,0.946,0,1.893-0.631,2.522C774.75,664.438,773.805,664.752,772.858,664.752z"
		/>
	<path fill="#FFFFFF" d="M706.323,721.512h76.941l-5.677-25.227h-65.273L706.323,721.512L706.323,721.512z M787.363,727.818h-84.824
		c-0.945,0-1.892-0.315-2.521-1.263c-0.631-0.63-0.946-1.575-0.631-2.521l7.253-31.533c0.315-1.577,1.577-2.523,3.153-2.523h70.317
		c1.577,0,2.838,0.946,3.154,2.523l7.252,31.533c0.315,0.946,0,1.893-0.631,2.521C789.256,727.503,788.309,727.818,787.363,727.818z
		"/>
</g>
<g>
	<g>
		<path fill="#FFFFFF" d="M1065.539,326.443l-0.143-0.143l-31.687-96.021l-0.058-0.23c-0.216-0.863-1.387-1.747-2.271-1.747h-31.134
			c-1.107,0-2.905,0.507-3.216,1.747l-0.057,0.23l-31.686,96.019l-0.144,0.143v452.095c0,2.108,0.915,3.022,3.023,3.022h94.346
			c2.108,0,3.024-0.914,3.024-3.022V326.443L1065.539,326.443z M971.193,775.512V326.508l31.054-92.158h27.184l30.063,92.191
			v448.971H971.193z"/>
	</g>
	<g>
		<path fill="#FFFFFF" d="M1175.731,781.56c2.108,0,3.024-0.915,3.024-3.022c0-2.108-0.916-3.024-3.024-3.024H902.127
			c-2.109,0-3.024,0.916-3.024,3.024c0,2.109,0.915,3.022,3.024,3.022H1175.731z"/>
	</g>
	<g>
		<path fill="#FFFFFF" d="M968.17,423.042c2.107,0,3.022-0.915,3.022-3.023v-94.346c0-2.108-0.915-3.024-3.022-3.024h-37.738
			c-2.109,0-3.023,0.916-3.023,3.024v94.346c0,2.109,0.915,3.023,3.023,3.023H968.17L968.17,423.042z M933.454,416.996v-88.3h31.692
			v88.3H933.454L933.454,416.996z"/>
	</g>
	<g>
		<path fill="#FFFFFF" d="M883.258,404.174c2.107,0,3.022-0.916,3.022-3.023v-56.608c0-2.108-0.915-3.023-3.022-3.023h-47.173
			c-2.108,0-3.023,0.915-3.023,3.023v18.869c0,22.878,17.884,40.763,40.762,40.763H883.258L883.258,404.174z M839.108,347.566
			h41.126v50.56h-6.411c-19.578,0-34.715-15.137-34.715-34.715V347.566L839.108,347.566z"/>
	</g>
	<g>
		<path fill="#FFFFFF" d="M971.135,780.732l93.526-84.174c0.639-0.716,0.878-2.014,0.878-2.935c0-0.746-1.146-2.208-1.689-2.8
			l-90.848-72.678l91.386-73.109l0.23-0.154c0.802-0.534,0.921-1.304,0.921-2.214c0-0.746-1.146-2.206-1.689-2.797l-90.849-72.679
			l91.506-73.205l0.37-0.222c1.134-0.681,0.721-2.979,0.057-3.866l-0.198-0.265l-0.17-0.284c-0.676-1.125-2.913-0.724-3.813-0.095
			l-94.458,75.566l-0.231,0.153c-0.8,0.534-0.919,1.306-0.919,2.215c0,0.746,1.145,2.206,1.688,2.798l90.85,72.679l-91.387,73.109
			l-0.231,0.153c-0.8,0.534-0.919,1.306-0.919,2.214c0,0.747,1.146,2.209,1.691,2.802l91.418,73.335l-91.31,82.277
			c-0.946,0.992-2.045,2.849-0.848,4.046c0.72,0.72,1.042,0.952,2.07,0.952C969.296,781.56,970.158,781.208,971.135,780.732z"/>
	</g>
	<g>
		<path fill="#FFFFFF" d="M1064.675,775.612l-91.311-82.279l91.023-72.819l0.231-0.153c0.801-0.533,0.92-1.305,0.92-2.213
			c0-0.746-1.147-2.207-1.69-2.8l-90.848-72.678l91.388-73.109l0.232-0.155c0.799-0.532,0.918-1.304,0.918-2.212
			c0-0.746-1.147-2.207-1.69-2.799l-93.91-75.129c-0.965-0.649-3.497-0.288-4.189,0.636c-0.697,0.929-0.322,3.538,0.605,4.235
			l0.08,0.059l91.248,72.999l-91.388,73.109l-0.232,0.155c-0.799,0.533-0.917,1.304-0.917,2.212c0,0.746,1.146,2.207,1.689,2.799
			l90.848,72.679l-91.387,73.108l-0.23,0.154c-0.8,0.534-0.92,1.304-0.92,2.215c0,0.963,0.192,1.292,0.847,1.963l94.332,84.9
			l0.119,0.119c0.395,0.393,1.51,0.953,2.071,0.953c0.91,0,1.681-0.119,2.214-0.92l0.1-0.147l0.105-0.141
			C1066.007,778.922,1065.892,776.914,1064.675,775.612z"/>
	</g>
	<g>
		<path fill="#FFFFFF" d="M970.532,393.747l93.841-65.69c0.893-0.747,1.255-3.273,0.562-4.197c-1.046-1.396-3.284-1.062-4.628-0.324
			l-94.008,65.805c-1.33,1.064-0.993,3.268-0.265,4.592c0.53,0.705,1.286,0.808,2.118,0.808
			C968.62,394.701,969.981,394.024,970.532,393.747z"/>
	</g>
	<g>
		<path fill="#FFFFFF" d="M1060.153,393.746c0.552,0.278,1.912,0.955,2.363,0.993c0.909,0,1.681-0.119,2.214-0.92l0.154-0.229
			l0.173-0.217c1.054-1.319,1.47-2.719-0.178-3.708l-0.193-0.116l-94.699-66.289l-0.16-0.128c-1.317-1.055-2.719-1.469-3.707,0.179
			l-0.222,0.37l-0.27,0.337c-1.057,1.319-1.466,2.716,0.181,3.706l0.193,0.116L1060.153,393.746z"/>
	</g>
	<g>
		<path fill="#FFFFFF" d="M1386.166,422.069c0.176-0.719,0.423-1.91,0.283-2.27l-0.221-0.332l-47.352-94.703
			c-0.637-1.272-1.242-2.117-2.758-2.117h-273.604c-2.109,0-3.023,0.917-3.023,3.024v94.346c0,2.108,0.915,3.023,3.023,3.023
			h320.778C1384.367,423.042,1385.314,422.669,1386.166,422.069L1386.166,422.069z M1065.539,416.996v-88.3h268.884l44.147,88.3
			H1065.539L1065.539,416.996z"/>
	</g>
	<g>
		<path fill="#FFFFFF" d="M930.431,441.913c2.107,0,3.022-0.916,3.022-3.023V306.803c0-2.108-0.914-3.022-3.022-3.022h-47.173
			c-2.108,0-3.023,0.914-3.023,3.022v132.085c0,2.108,0.915,3.023,3.023,3.023L930.431,441.913L930.431,441.913z M886.281,435.865
			V309.827h41.126v126.038H886.281z"/>
	</g>
	<g>
		<path fill="#FFFFFF" d="M1299.887,422.658l0.183-0.184l0.675-0.404c1.117-0.67,0.729-2.906,0.095-3.813l-75.393-94.241
			c-1.21-1.512-3.875-1.512-5.084,0l-72.936,91.168l-73.206-91.507l-0.223-0.37c-0.679-1.134-2.979-0.718-3.862-0.056l-0.266,0.198
			l-0.284,0.17c-1.125,0.675-0.723,2.913-0.095,3.812l75.395,94.241c1.209,1.512,3.874,1.512,5.083,0l72.936-91.17l73.109,91.387
			l0.154,0.231c0.533,0.8,1.305,0.919,2.214,0.919C1298.696,423.042,1299.476,422.825,1299.887,422.658z"/>
	</g>
	<g>
		<path fill="#FFFFFF" d="M1300.832,327.444c0.648-0.966,0.289-3.497-0.635-4.19c-0.93-0.697-3.536-0.325-4.233,0.604l-0.061,0.081
			l-72.998,91.249l-72.936-91.17c-1.209-1.511-3.874-1.511-5.083,0l-75.387,94.231c-0.619,0.917-0.316,3.063,0.405,3.959
			c0.572,0.283,1.656,0.802,2.045,0.834c0.908,0,1.681-0.118,2.212-0.918l0.154-0.232l73.11-91.388l72.936,91.17
			c1.209,1.513,3.874,1.513,5.084,0L1300.832,327.444z"/>
	</g>
	<g>
		<path fill="#FFFFFF" d="M1301.259,422.215l52.77-63.135l0.203-0.203c1.231-1.229,0.036-3.163-0.944-4.142
			c-1.172-1.173-2.975-0.14-3.973,0.782l-52.801,63.172l-0.203,0.201c-1.107,1.106-0.25,2.769,0.615,3.785
			c0.419,0.163,1.151,0.366,1.457,0.366C1299.285,423.042,1300.533,422.814,1301.259,422.215z"/>
	</g>
	<g>
		<path fill="#FFFFFF" d="M1298.383,536.259c2.107,0,3.022-0.915,3.022-3.022V420.02c0-2.107-0.915-3.022-3.022-3.022
			c-2.108,0-3.024,0.915-3.024,3.022v113.217C1295.358,535.344,1296.274,536.259,1298.383,536.259z"/>
	</g>
	<g>
		<path fill="#FFFFFF" d="M1317.25,592.867c2.108,0,3.024-0.915,3.024-3.023v-11.322c0-18.227-6.959-34.492-19.822-47.355
			c-1.269-1.27-2.873-1.277-4.14-0.002l-0.08,0.08l-0.082,0.077c-13.058,12.184-19.662,29.486-19.662,47.203v11.32
			c0,2.108,0.915,3.023,3.023,3.023L1317.25,592.867L1317.25,592.867z M1282.535,586.82v-8.298c0-12.706,3.276-24.357,10.596-34.812
			l5.252-7.502l5.252,7.502c7.317,10.454,10.593,22.106,10.593,34.812v8.298H1282.535z"/>
	</g>
	<g>
		<path fill="#FFFFFF" d="M1298.383,621.17c2.107,0,3.022-0.915,3.022-3.023v-28.304c0-2.108-0.915-3.022-3.022-3.022
			c-2.108,0-3.024,0.915-3.024,3.022v28.304C1295.358,620.256,1296.274,621.17,1298.383,621.17z"/>
	</g>
	<g>
		<path fill="#FFFFFF" d="M1298.383,677.778c17.217,0,31.327-14.11,31.327-31.327c0-17.218-14.11-31.327-31.327-31.327
			c-2.108,0-3.024,0.914-3.024,3.022c0,2.109,0.916,3.023,3.024,3.023c13.917,0,25.279,11.364,25.279,25.281
			c0,13.916-11.363,25.28-25.279,25.28c-13.917,0-25.281-11.364-25.281-25.28c0-2.108-0.915-3.023-3.023-3.023
			c-2.107,0-3.023,0.914-3.023,3.023C1267.055,663.668,1281.166,677.778,1298.383,677.778z"/>
	</g>
</g>
<g>
	<g>
		<path fill="#FFFFFF" d="M185.203,748.813c2.476,0,3.741-1.268,3.741-3.742c0-2.476-1.267-3.741-3.741-3.741h-17.386
			c-2.475,0-3.74,1.267-3.74,3.741c0,2.476,1.266,3.742,3.74,3.742H185.203z"/>
	</g>
	<g>
		<path fill="#FFFFFF" d="M185.203,722.737c2.476,0,3.741-1.268,3.741-3.743c0-2.475-1.267-3.74-3.741-3.74h-17.386
			c-2.475,0-3.74,1.267-3.74,3.74c0,2.477,1.266,3.743,3.74,3.743H185.203z"/>
	</g>
	<g>
		<path fill="#FFFFFF" d="M246.048,783.583c2.476,0,3.742-1.268,3.742-3.742c0-2.476-1.268-3.742-3.742-3.742H141.742
			c-2.477,0-3.742,1.268-3.742,3.742c0,2.476,1.266,3.742,3.742,3.742H246.048z"/>
	</g>
	<g>
		<path fill="#FFFFFF" d="M219.972,322.897c2.475,0,3.742-1.267,3.742-3.742v-22.6c0-13.782-10.82-24.603-24.604-24.603H188.68
			c-13.782,0-24.603,10.821-24.603,24.603v22.6c0,2.475,1.266,3.742,3.74,3.742H219.972L219.972,322.897z M171.561,315.414v-18.858
			c0-9.687,7.435-17.119,17.119-17.119h10.431c9.687,0,17.12,7.433,17.12,17.119v18.858H171.561z"/>
	</g>
	<g>
		<path fill="#FFFFFF" d="M219.972,418.512c2.475,0,3.742-1.268,3.742-3.742v-60.846c0-2.475-1.268-3.742-3.742-3.742h-52.153
			c-2.475,0-3.74,1.267-3.74,3.742v60.846c0,2.476,1.267,3.742,3.74,3.742H219.972L219.972,418.512z M171.561,411.026v-53.36h44.669
			v53.36H171.561L171.561,411.026z"/>
	</g>
	<g>
		<path fill="#FFFFFF" d="M219.972,783.583c2.475,0,3.742-1.268,3.742-3.742V449.538c0-2.475-1.268-3.741-3.742-3.741h-52.153
			c-2.475,0-3.74,1.267-3.74,3.741v330.303c0,2.476,1.266,3.742,3.74,3.742H219.972L219.972,783.583z M171.561,776.098V453.279
			h44.669v322.818H171.561z"/>
	</g>
	<g>
		<path fill="#FFFFFF" d="M280.816,470.664c2.476,0,3.743-1.267,3.743-3.741v-17.386c0-2.475-1.268-3.741-3.743-3.741
			c-2.475,0-3.742,1.267-3.742,3.741v17.386C277.074,469.397,278.341,470.664,280.816,470.664z"/>
	</g>
	<g>
		<path fill="#FFFFFF" d="M341.661,470.664c2.476,0,3.742-1.267,3.742-3.741v-17.386c0-2.475-1.266-3.741-3.742-3.741
			c-2.475,0-3.742,1.267-3.742,3.741v17.386C337.919,469.397,339.188,470.664,341.661,470.664z"/>
	</g>
	<g>
		<path fill="#FFFFFF" d="M46.128,470.664c2.475,0,3.743-1.267,3.743-3.741v-17.386c0-2.475-1.268-3.741-3.743-3.741
			s-3.742,1.267-3.742,3.741v17.386C42.386,469.397,43.653,470.664,46.128,470.664z"/>
	</g>
	<g>
		<path fill="#FFFFFF" d="M106.974,470.664c2.476,0,3.742-1.267,3.742-3.741v-17.386c0-2.475-1.267-3.741-3.742-3.741
			s-3.742,1.267-3.742,3.741v17.386C103.231,469.397,104.499,470.664,106.974,470.664z"/>
	</g>
	<g>
		<path fill="#FFFFFF" d="M280.816,375.051c2.476,0,3.743-1.267,3.743-3.742v-17.384c0-2.475-1.268-3.742-3.743-3.742
			c-2.475,0-3.742,1.267-3.742,3.742v17.384C277.074,373.784,278.341,375.051,280.816,375.051z"/>
	</g>
	<g>
		<path fill="#FFFFFF" d="M106.974,375.051c2.476,0,3.742-1.267,3.742-3.742v-17.384c0-2.475-1.267-3.742-3.742-3.742
			s-3.742,1.267-3.742,3.742v17.384C103.231,373.784,104.499,375.051,106.974,375.051z"/>
	</g>
	<g>
		<path fill="#FFFFFF" d="M367.739,453.279c2.476,0,3.742-1.267,3.742-3.742v-34.769c0-2.475-1.267-3.743-3.742-3.743H20.052
			c-2.476,0-3.742,1.269-3.742,3.743v34.769c0,2.476,1.268,3.742,3.742,3.742H367.739L367.739,453.279z M23.794,445.797v-27.285
			h340.201v27.285H23.794L23.794,445.797z"/>
	</g>
	<g>
		<path fill="#FFFFFF" d="M315.586,357.667c2.475,0,3.741-1.268,3.741-3.743v-34.768c0-2.475-1.267-3.742-3.741-3.742H72.205
			c-2.476,0-3.742,1.267-3.742,3.742v34.768c0,2.475,1.267,3.743,3.742,3.743H315.586L315.586,357.667z M75.947,350.183v-27.285
			h235.896v27.285H75.947z"/>
	</g>
</g>
<g>
	<g>
		<path fill="#FFFFFF" d="M649.466,352.696c-0.032,0.079-0.061,0.159-0.085,0.241l-0.087,0.284l-0.161,0.25
			c-0.04,0.062-0.077,0.125-0.111,0.19l-13.363,42.218c-0.567,2.051-0.301,4.269,0.74,6.125l0.616,1.098l-4.157,6.82
			c-0.573,0.94-0.603,2.116-0.076,3.082s1.529,1.578,2.628,1.604c1.1,0.026,2.134-0.538,2.706-1.477l4.116-6.745l1.264,0.05
			c0.692,0.027,1.39-0.038,2.023-0.181c1.457-0.359,2.794-1.092,3.852-2.106l31.396-31.12c0.094-0.16,0.183-0.306,0.309-0.461
			l0.086-0.106l0.1-0.095c0.056-0.053,0.108-0.107,0.16-0.165L728.9,294.34l1.26,0.046c0.717,0.026,1.437-0.04,2.097-0.187
			c2.13-0.516,3.976-1.856,5.117-3.729l25.561-41.922l6.292,3.845c3.455,2.111,4.559,6.667,2.45,10.124l-21.727,35.604
			c-0.882,1.445-0.438,3.346,1.008,4.234c1.438,0.884,3.346,0.441,4.229-1.005l21.726-35.604c1.863-3.054,2.439-6.724,1.598-10.201
			c-0.843-3.481-3.041-6.475-6.091-8.347l-6.278-3.854l1.104-1.829c3.283-5.433,4.271-11.891,2.763-18.056
			c-1.509-6.164-5.356-11.427-10.774-14.732c-5.542-3.382-12.193-4.371-18.479-2.75c-6,1.547-11.111,5.318-14.341,10.611
			l-29.871,48.976c-1.53,2.508-1.586,5.652-0.174,8.225l0.601,1.093L649.466,352.696L649.466,352.696z M643.75,401.177l-2.607-2.298
			l12.588-39.794l20.044,12.226L643.75,401.177L643.75,401.177z M677.681,366.522l-21.482-13.109l45.706-74.895l10.744,6.557
			l10.733,6.554L677.681,366.522L677.681,366.522z M731.027,289.123l-30.383-18.541l30.977-50.764
			c3.249-5.544,9.252-8.91,15.677-8.793c6.43,0.117,12.298,3.694,15.346,9.358c3.042,5.652,2.796,12.542-0.622,17.931
			L731.027,289.123z"/>
	</g>
	<g>
		<path fill="#FFFFFF" d="M651.339,328.592c-0.397-1.638-2.061-2.652-3.698-2.256l-76.02,18.402
			c-1.637,0.396-2.649,2.061-2.254,3.697c0.396,1.636,2.061,2.65,3.695,2.255l76.019-18.402
			C650.718,331.892,651.734,330.229,651.339,328.592z"/>
	</g>
	<g>
		<path fill="#FFFFFF" d="M537.586,359.278l10.136-2.454c1.636-0.396,2.653-2.059,2.257-3.695c-0.396-1.638-2.06-2.653-3.698-2.257
			l-10.136,2.454c-1.637,0.396-2.65,2.061-2.254,3.697C534.286,358.659,535.949,359.674,537.586,359.278z"/>
	</g>
	<g>
		<path fill="#FFFFFF" d="M642.733,306.064l-76.019,18.402c-1.637,0.396-2.65,2.059-2.255,3.695
			c0.396,1.637,2.059,2.654,3.695,2.257l76.02-18.402c1.638-0.396,2.652-2.06,2.257-3.698
			C646.033,306.682,644.369,305.668,642.733,306.064z"/>
	</g>
	<g>
		<path fill="#FFFFFF" d="M532.679,339.006l10.136-2.454c1.638-0.396,2.653-2.06,2.257-3.698c-0.396-1.637-2.061-2.65-3.696-2.254
			l-10.137,2.454c-1.636,0.396-2.649,2.06-2.255,3.695C529.38,338.386,531.041,339.402,532.679,339.006z"/>
	</g>
	<g>
		<path fill="#FFFFFF" d="M637.825,285.793l-76.019,18.402c-1.636,0.396-2.65,2.059-2.255,3.695
			c0.396,1.636,2.059,2.653,3.695,2.257l76.02-18.402c1.638-0.396,2.653-2.06,2.256-3.698
			C641.127,286.41,639.463,285.396,637.825,285.793z"/>
	</g>
	<g>
		<path fill="#FFFFFF" d="M527.771,318.735l10.136-2.454c1.639-0.396,2.653-2.06,2.257-3.698c-0.396-1.637-2.061-2.65-3.696-2.254
			l-10.137,2.454c-1.636,0.396-2.65,2.059-2.255,3.695C524.473,318.114,526.135,319.131,527.771,318.735z"/>
	</g>
	<g>
		<path fill="#FFFFFF" d="M632.919,265.521l-76.02,18.403c-1.636,0.396-2.651,2.059-2.255,3.694
			c0.396,1.637,2.058,2.654,3.695,2.257l76.019-18.402c1.638-0.397,2.653-2.06,2.256-3.698
			C636.22,266.139,634.556,265.125,632.919,265.521z"/>
	</g>
	<g>
		<path fill="#FFFFFF" d="M522.864,298.463L533,296.01c1.638-0.396,2.652-2.06,2.256-3.698c-0.396-1.637-2.062-2.649-3.697-2.253
			l-10.136,2.454c-1.637,0.396-2.65,2.059-2.255,3.695C519.565,297.843,521.228,298.86,522.864,298.463z"/>
	</g>
	<g>
		<path fill="#FFFFFF" d="M628.012,245.25l-76.02,18.402c-1.636,0.396-2.65,2.059-2.255,3.695c0.396,1.637,2.06,2.653,3.695,2.257
			l76.019-18.402c1.639-0.397,2.653-2.06,2.256-3.698C631.313,245.867,629.648,244.854,628.012,245.25z"/>
	</g>
	<g>
		<path fill="#FFFFFF" d="M517.957,278.192l10.137-2.454c1.638-0.396,2.652-2.06,2.256-3.698c-0.396-1.637-2.062-2.65-3.697-2.254
			l-10.136,2.454c-1.636,0.396-2.651,2.059-2.255,3.694C514.657,277.571,516.32,278.588,517.957,278.192z"/>
	</g>
	<g>
		<path fill="#FFFFFF" d="M587.732,389.123c-1.637,0.396-2.654,2.059-2.257,3.696c0.396,1.638,2.06,2.652,3.698,2.256l35.474-8.587
			c1.638-0.396,2.653-2.06,2.257-3.698c-0.396-1.637-2.061-2.65-3.697-2.253L587.732,389.123z"/>
	</g>
	<g>
		<path fill="#FFFFFF" d="M678.488,418.587l-3.68-15.203c-0.396-1.637-2.06-2.652-3.696-2.257c-1.638,0.396-2.652,2.061-2.256,3.698
			l3.68,15.203c0.396,1.638,2.061,2.652,3.698,2.256C677.87,421.888,678.884,420.224,678.488,418.587z"/>
	</g>
	<g>
		<path fill="#FFFFFF" d="M567.321,384.257c-1.438-0.877-3.331-0.418-4.208,1.019l-6.089,9.975l-9.943-6.067
			c-1.434-0.842-3.298-0.375-4.164,1.045c-0.866,1.42-0.43,3.292,0.943,4.163l9.975,6.085l-6.097,9.994l-0.01,0.018
			c-0.591,0.931-0.634,2.117-0.111,3.088c0.524,0.974,1.534,1.593,2.641,1.613s2.139-0.561,2.698-1.515l6.104-10.009l9.946,6.069
			c1.435,0.842,3.296,0.373,4.161-1.047c0.866-1.421,0.433-3.289-0.94-4.161l-9.979-6.089l6.091-9.976
			C569.217,387.027,568.758,385.134,567.321,384.257z"/>
	</g>
	<g>
		<path fill="#FFFFFF" d="M542.392,223.992l40.543-9.814c1.638-0.396,2.653-2.06,2.256-3.698c-0.396-1.637-2.061-2.649-3.697-2.253
			l-40.542,9.814c-1.636,0.396-2.65,2.059-2.255,3.694C539.093,223.372,540.755,224.389,542.392,223.992z"/>
	</g>
	<g>
		<path fill="#FFFFFF" d="M704.294,360.906c-1.637,0.396-2.653,2.058-2.258,3.695l15.948,65.883
			c1.116,4.606,0.359,9.43-2.114,13.474c-2.466,4.032-6.397,6.897-10.992,8.009l-162.175,39.258
			c-4.602,1.114-9.417,0.361-13.457-2.104c-4.041-2.466-6.912-6.404-8.026-11.005L466.014,250.06
			c-1.113-4.595-0.362-9.404,2.097-13.44c2.465-4.048,6.407-6.926,11.013-8.041l23.74-5.747l-0.092,2.827
			c-0.051,1.571,0.092,3.149,0.452,4.679c0.366,1.56,0.907,3.075,1.586,4.526l1.117,2.385l-13.201,3.195
			c-3.496,0.846-6.479,3.024-8.351,6.096c-1.864,3.064-2.433,6.702-1.589,10.188l50.301,207.786
			c0.845,3.492,3.018,6.473,6.084,8.344c3.065,1.87,6.711,2.441,10.202,1.596l141.902-34.352c3.486-0.844,6.462-3.013,8.333-6.072
			c1.876-3.068,2.449-6.719,1.604-10.213l-8.587-35.475c-0.396-1.637-2.059-2.653-3.695-2.257c-1.639,0.397-2.653,2.06-2.256,3.698
			l8.587,35.474c0.953,3.937-1.489,7.941-5.425,8.895l-141.902,34.351c-3.938,0.954-7.941-1.49-8.896-5.427L488.74,255.289
			c-0.953-3.936,1.492-7.939,5.429-8.892l16.384-3.966l0.831,0.689c5.717,4.738,13.488,6.574,20.713,4.826l70.952-17.176
			c7.276-1.762,13.274-6.884,16.212-13.764l0.424-0.993l16.386-3.967c3.936-0.952,7.939,1.491,8.893,5.426l18.401,76.019
			c0.396,1.638,2.061,2.653,3.698,2.257c1.637-0.396,2.65-2.061,2.254-3.697l-18.401-76.019c-0.846-3.491-3.02-6.47-6.084-8.34
			c-3.065-1.871-6.709-2.441-10.201-1.596l-13.203,3.196l-0.098-2.631c-0.06-1.601-0.269-3.197-0.656-4.751
			c-0.38-1.526-0.977-2.993-1.74-4.366l-1.375-2.473l23.742-5.747c4.601-1.114,9.416-0.36,13.456,2.104
			c4.04,2.465,6.912,6.402,8.024,11.002l14.723,60.817c0.396,1.637,2.061,2.65,3.696,2.254c1.637-0.396,2.65-2.059,2.256-3.695
			l-14.723-60.816c-1.498-6.188-5.355-11.47-10.789-14.786s-11.896-4.332-18.085-2.833l-28.069,6.795l-0.723-0.384
			c-3.977-2.114-8.604-2.713-12.984-1.665c-3.938,0.943-7.934-1.487-8.888-5.426c-0.845-3.492-3.019-6.472-6.084-8.343
			c-3.065-1.871-6.71-2.441-10.203-1.596l-40.543,9.814c-3.488,0.845-6.467,3.017-8.338,6.079c-1.874,3.067-2.445,6.714-1.6,10.208
			c0.954,3.939-1.487,7.928-5.421,8.89c-4.38,1.072-8.211,3.717-10.784,7.418l-0.466,0.671l-28.07,6.795
			c-6.194,1.5-11.48,5.364-14.797,10.804c-3.309,5.431-4.321,11.888-2.825,18.07l55.207,228.057
			c1.498,6.189,5.357,11.474,10.792,14.789c5.433,3.315,11.897,4.33,18.085,2.833l162.174-39.258
			c6.184-1.497,11.462-5.35,14.778-10.776c3.322-5.437,4.34-11.905,2.84-18.1l-15.948-65.884
			C707.593,361.525,705.93,360.51,704.294,360.906L704.294,360.906z M528.379,197.41c-0.953-3.936,1.488-7.941,5.425-8.894
			l40.543-9.814c3.938-0.953,7.94,1.49,8.895,5.427c0.846,3.491,3.019,6.47,6.083,8.34c3.065,1.871,6.709,2.441,10.201,1.597
			c3.255-0.788,6.665-0.253,9.522,1.493c2.853,1.743,4.881,4.525,5.667,7.774c1.114,4.604,0.358,9.422-2.109,13.464
			c-2.466,4.037-6.401,6.907-11,8.02l-70.952,17.176c-4.595,1.112-9.403,0.362-13.439-2.097c-4.048-2.465-6.927-6.407-8.042-11.014
			c-0.787-3.252-0.254-6.657,1.487-9.513c1.742-2.856,4.527-4.887,7.779-5.674c3.494-0.846,6.476-3.022,8.346-6.091
			C528.654,204.54,529.224,200.898,528.379,197.41z"/>
	</g>
</g>
<path fill="#FFFFFF" d="M94.121,9.023V31.7c0,12.501,10.175,22.676,22.676,22.676h254.198c12.502,0,22.676-10.174,22.676-22.676
	V9.023h-9.777v-163.084c0-12.502-10.174-22.676-22.676-22.676h-16.432v-1.766c0-36.765-29.906-66.671-66.671-66.671
	s-66.672,29.907-66.672,66.671v1.766h-84.869c-12.502,0-22.676,10.174-22.676,22.676V9.023H94.121L94.121,9.023z M361.217-170.493
	c9.062,0,16.433,7.373,16.433,16.432V9.023h-13.31v-158.196c0-4.417-3.594-8.01-8.011-8.01H341.3l0.676-2.27
	c0.928-3.115,1.585-6.307,2.045-9.523l0.217-1.517H361.217L361.217-170.493z M221.203-198.835l54.397,22.668l18.627,55.872
	l-1.865,0.454c-4.671,1.137-9.438,1.767-14.247,1.767c-33.323,0-60.429-27.105-60.429-60.428c0-6.289,0.994-12.522,2.927-18.506
	L221.203-198.835L221.203-198.835z M300.165-122.227l-18.479-55.434l41.282-41.286l1.24,1.464
	c9.262,10.931,14.332,24.645,14.332,38.979c0,24.185-14.476,45.986-36.611,55.517L300.165-122.227L300.165-122.227z
	 M278.115-238.931c14.335,0,28.048,5.071,38.982,14.327l1.466,1.241l-41.175,41.171l-53.762-22.395l0.888-1.707
	C234.913-226.274,255.503-238.931,278.115-238.931L278.115-238.931z M110.142-154.062c0-9.06,7.373-16.432,16.433-16.432h85.418
	l0.217,1.517c0.459,3.215,1.112,6.407,2.044,9.521l0.68,2.272h-83.47c-4.417,0-8.011,3.594-8.011,8.011V9.023h-13.311V-154.062
	L110.142-154.062z M344.786,15.268V9.023h-63.075l-0.915,0.915c-5.715,5.715-13.316,8.862-21.398,8.862h-31.006
	c-8.08,0-15.695-3.14-21.401-8.864l-0.91-0.913h-76.383v-159.962h87.793l0.479,1.006c11.056,23.172,34.362,38.102,60.146,38.102
	c25.782,0,49.09-14.929,60.146-38.102l0.48-1.006h19.355V15.269h29.33v16.432c0,9.06-7.373,16.432-16.433,16.432H116.796
	c-9.06,0-16.432-7.372-16.432-16.432V15.269h103.156l0.504,0.453c6.731,6.054,15.315,9.324,24.371,9.324h31.006
	c9.055,0,17.639-3.271,24.371-9.324l0.504-0.453L344.786,15.268L344.786,15.268z M123.452,28.578h6.244v6.244h-6.244V28.578
	L123.452,28.578z M250.55-88.746h94.235v6.244H250.55V-88.746L250.55-88.746z M230.997-88.746h6.244v6.244h-6.244V-88.746
	L230.997-88.746z M217.687-137.628v64.905h-74.682v-64.905H217.687L217.687-137.628z M211.444-78.969H149.25v-52.417h62.193V-78.969
	L211.444-78.969z M162.56-98.521h35.573v6.244H162.56V-98.521L162.56-98.521z M162.56-118.076h35.573v6.244H162.56V-118.076
	L162.56-118.076z M331.887-39.86c7.109,0,12.898,5.789,12.898,12.899c0,7.109-5.789,12.899-12.898,12.899
	c-7.108,0-12.897-5.79-12.897-12.899c0-1.306,0.262-2.577,0.65-3.818l0.374-1.192l-19.055-14.287l-1.04,0.694
	c-2.121,1.416-4.589,2.17-7.14,2.17c-2.414,0-4.728-0.702-6.771-1.976l-1.062-0.662l-29.329,23.466l0.409,1.179
	c0.472,1.358,0.767,2.759,0.767,4.202c0,7.109-5.789,12.899-12.899,12.899c-7.108,0-12.897-5.79-12.897-12.899
	c0-1.063,0.177-2.109,0.438-3.136l0.311-1.213l-23.16-15.442l-1,0.75c-2.232,1.676-4.887,2.609-7.686,2.609
	s-5.452-0.933-7.687-2.609l-1-0.75l-23.161,15.442l0.312,1.213c0.263,1.028,0.438,2.072,0.438,3.136
	c0,7.109-5.789,12.899-12.898,12.899s-12.898-5.79-12.898-12.899s5.789-12.899,12.898-12.899c2.799,0,5.452,0.933,7.686,2.608
	l1,0.75l23.161-15.442l-0.311-1.213C187.177-44.41,187-45.454,187-46.518c0-7.109,5.79-12.898,12.899-12.898
	c7.108,0,12.897,5.79,12.897,12.898c0,1.064-0.176,2.108-0.438,3.136l-0.312,1.213l23.159,15.441l1-0.749
	c2.233-1.672,4.888-2.609,7.687-2.609c2.414,0,4.728,0.702,6.771,1.976l1.061,0.662l29.33-23.466l-0.409-1.179
	c-0.472-1.358-0.767-2.759-0.767-4.202c0-7.11,5.789-12.899,12.898-12.899c7.108,0,12.898,5.79,12.898,12.899
	c0,1.306-0.263,2.576-0.652,3.817l-0.373,1.193l19.055,14.287l1.04-0.695C326.869-39.105,329.336-39.86,331.887-39.86L331.887-39.86
	z M155.905-10.53c-3.667,0-6.654-2.987-6.654-6.655s2.987-6.655,6.654-6.655c3.668,0,6.655,2.987,6.655,6.655
	S159.573-10.53,155.905-10.53L155.905-10.53z M199.9-39.86c-3.666,0-6.653-2.987-6.653-6.655s2.987-6.655,6.653-6.655
	c3.668,0,6.655,2.987,6.655,6.655S203.568-39.86,199.9-39.86L199.9-39.86z M243.896-10.53c-3.668,0-6.654-2.987-6.654-6.655
	s2.986-6.655,6.654-6.655s6.654,2.987,6.654,6.655S247.564-10.53,243.896-10.53L243.896-10.53z M292.781-49.638
	c-3.668,0-6.655-2.987-6.655-6.655s2.987-6.655,6.655-6.655c3.667,0,6.654,2.987,6.654,6.655S296.448-49.638,292.781-49.638
	L292.781-49.638z M331.887-20.308c-3.668,0-6.653-2.987-6.653-6.655s2.985-6.655,6.653-6.655c3.667,0,6.654,2.987,6.654,6.655
	S335.554-20.308,331.887-20.308L331.887-20.308z M328.765,28.578h35.575v6.244h-35.575V28.578L328.765,28.578z M162.56,28.578h6.243
	v6.244h-6.243V28.578L162.56,28.578z M143.005,28.578h6.244v6.244h-6.244V28.578z"/>
<g>
	<path fill="#FFFFFF" d="M1262.971-125.235c-6.212-3.759-14.298-1.779-18.069,4.426c-0.018,0.028-0.03,0.06-0.048,0.088
		l-16.82,3.352c-1.793-5.624-7.115-9.363-13.014-9.142c-5.899,0.222-10.927,4.353-12.288,10.096l-14.945,2.342
		c-0.455-3.821-2.569-7.248-5.773-9.373c-3.209-2.125-7.19-2.731-10.887-1.661l-5.847-13.188c4.376-4.895,4.487-12.264,0.261-17.29
		c-4.226-5.027-11.504-6.182-17.08-2.71c-5.572,3.473-7.748,10.515-5.1,16.523c2.646,6.011,9.309,9.161,15.633,7.391l5.867,13.24
		c-3.281,3.738-4.171,9.008-2.299,13.616c1.869,4.607,6.179,7.768,11.138,8.162c4.958,0.396,9.714-2.037,12.291-6.291
		c0.155-0.255,0.286-0.517,0.419-0.779l16.687-2.615c1.882,5.465,7.109,9.061,12.886,8.859c5.773-0.202,10.738-4.153,12.232-9.735
		l14.845-2.958c0.521,6.184,5.298,11.164,11.453,11.941c6.159,0.776,12.021-2.859,14.063-8.72c2.043-5.863-0.293-12.352-5.604-15.57
		L1262.971-125.235L1262.971-125.235z M1152.435-142.053c-2.749-1.667-3.625-5.247-1.957-7.998c1.667-2.75,5.248-3.626,7.999-1.958
		c2.749,1.667,3.626,5.248,1.958,7.997C1158.764-141.265,1155.187-140.389,1152.435-142.053L1152.435-142.053z M1171.726-107.5
		c-2.751-1.668-3.628-5.249-1.961-7.998c1.668-2.749,5.249-3.628,8-1.959c2.749,1.667,3.625,5.25,1.957,7.999
		C1178.052-106.714,1174.474-105.836,1171.726-107.5L1171.726-107.5z M1212.503-108.378c-2.75-1.667-3.629-5.249-1.961-8
		c1.668-2.749,5.25-3.625,8-1.957s3.627,5.249,1.959,8C1218.829-107.589,1215.253-106.713,1212.503-108.378L1212.503-108.378z
		 M1253.128-109.008c-2.748-1.667-3.625-5.248-1.957-7.999c1.668-2.749,5.248-3.626,7.996-1.959
		c2.752,1.669,3.629,5.249,1.961,7.998C1259.456-108.221,1255.88-107.344,1253.128-109.008z"/>
	<path fill="#FFFFFF" d="M1252.036-91.002l-14.367-8.714c-1.732-1.051-3.986-0.498-5.035,1.233l-36.889,60.818
		c-1.05,1.73-0.498,3.984,1.233,5.036l14.367,8.714c1.73,1.05,3.987,0.498,5.037-1.233l36.887-60.818
		C1254.32-87.696,1253.768-89.952,1252.036-91.002L1252.036-91.002z M1212.015-32.085l-8.098-4.911l33.084-54.549l8.099,4.912
		L1212.015-32.085z"/>
	<path fill="#FFFFFF" d="M1211.453-90.447l-14.368-8.714c-1.729-1.05-3.985-0.498-5.035,1.233l-25.728,42.417
		c-1.051,1.731-0.498,3.987,1.232,5.036l14.368,8.714c1.731,1.052,3.985,0.497,5.035-1.232l25.728-42.417
		C1213.736-87.142,1213.187-89.397,1211.453-90.447L1211.453-90.447z M1182.592-49.931l-8.1-4.912l21.925-36.147l8.1,4.912
		L1182.592-49.931z"/>
	<path fill="#FFFFFF" d="M1170.573-89.394l-14.366-8.714c-1.731-1.05-3.985-0.5-5.037,1.233l-14.267,23.521
		c-1.05,1.73-0.497,3.987,1.233,5.036l14.367,8.714c1.732,1.051,3.986,0.497,5.036-1.233l14.267-23.521
		C1172.857-86.091,1172.306-88.343,1170.573-89.394L1170.573-89.394L1170.573-89.394z M1153.173-67.774l-8.1-4.912l10.465-17.251
		l8.098,4.912L1153.173-67.774z"/>
	<path fill="#FFFFFF" d="M1151.235-123.872l-14.368-8.714c-1.729-1.05-3.986-0.498-5.035,1.233l-24.354,40.152
		c-1.049,1.73-0.497,3.986,1.233,5.036l14.367,8.714c1.733,1.051,3.986,0.497,5.036-1.233l24.354-40.152
		C1153.519-120.567,1152.968-122.821,1151.235-123.872L1151.235-123.872L1151.235-123.872z M1123.747-85.622l-8.099-4.912
		l20.55-33.883l8.1,4.912L1123.747-85.622z"/>
	<path fill="#FFFFFF" d="M1334.115-220.876l-101.85-61.774c-1.732-1.051-3.986-0.497-5.036,1.233l-4.38,7.221l-24.651-14.952
		c-7.943-4.808-18.277-2.276-23.104,5.657L1061.924-96.902c-4.805,7.945-2.272,18.279,5.661,23.103l151.8,92.07
		c7.944,4.807,18.278,2.276,23.104-5.657l113.17-186.589c4.805-7.943,2.272-18.278-5.657-23.102l-19.031-11.542l4.379-7.221
		C1336.399-217.57,1335.847-219.826,1334.115-220.876L1334.115-220.876L1334.115-220.876z M1231.599-274.479l95.58,57.972
		l-7.924,13.066l-95.582-57.972L1231.599-274.479L1231.599-274.479z M1346.197-190.808c4.476,2.72,5.903,8.549,3.192,13.031
		L1236.219,8.812c-2.722,4.474-8.552,5.902-13.031,3.19l-151.801-92.07c-4.476-2.72-5.902-8.549-3.192-13.031l113.169-186.589
		c2.724-4.474,8.55-5.901,13.03-3.191l24.65,14.952l-3.545,5.845c-1.05,1.731-0.498,3.985,1.233,5.036l101.853,61.775
		c1.73,1.049,3.986,0.497,5.035-1.233l3.546-5.846L1346.197-190.808z"/>
	<path fill="#FFFFFF" d="M1167.439-201.127l51.25,31.084c1.73,1.05,3.986,0.497,5.036-1.233l17.05-28.111
		c1.05-1.73,0.497-3.987-1.232-5.036l-51.25-31.084c-1.731-1.05-3.986-0.497-5.036,1.233l-17.05,28.111
		C1165.156-204.432,1165.708-202.176,1167.439-201.127L1167.439-201.127L1167.439-201.127z M1187.624-227.337l44.979,27.282
		l-13.247,21.841l-44.98-27.282L1187.624-227.337z"/>
	<path fill="#FFFFFF" d="M1289.96-135.392l-2.179-1.321c-1.73-1.05-3.987-0.497-5.036,1.233c-1.05,1.731-0.496,3.987,1.233,5.037
		l2.178,1.32c1.73,1.05,3.986,0.497,5.036-1.233C1292.242-132.087,1291.69-134.342,1289.96-135.392L1289.96-135.392z"/>
	<path fill="#FFFFFF" d="M1245.532-153.761l23.913,14.504c1.73,1.049,3.986,0.497,5.036-1.233c1.05-1.731,0.497-3.987-1.232-5.037
		l-23.914-14.503c-1.732-1.051-3.985-0.497-5.035,1.234C1243.249-157.066,1243.801-154.812,1245.532-153.761L1245.532-153.761z"/>
	<path fill="#FFFFFF" d="M1277.867-176.889c-1.049,1.731-0.497,3.987,1.233,5.036l24.104,14.62c1.73,1.05,3.986,0.498,5.036-1.233
		c1.049-1.731,0.497-3.987-1.232-5.037l-24.105-14.62C1281.174-179.172,1278.917-178.62,1277.867-176.889z"/>
	<path fill="#FFFFFF" d="M1262.583-181.872l1.985,1.205c1.73,1.049,3.986,0.497,5.035-1.234c1.051-1.73,0.498-3.986-1.231-5.036
		l-1.986-1.204c-1.732-1.051-3.986-0.497-5.036,1.233C1260.3-185.177,1260.851-182.923,1262.583-181.872L1262.583-181.872z"/>
	<path fill="#FFFFFF" d="M1180.36-161.845c-1.05,1.73-0.497,3.986,1.233,5.036l36.926,22.396c1.729,1.05,3.986,0.497,5.035-1.233
		c1.051-1.731,0.498-3.987-1.232-5.036l-36.926-22.396C1183.665-164.128,1181.409-163.575,1180.36-161.845z"/>
	<path fill="#FFFFFF" d="M1169.802-172.537c-1.73-1.05-3.986-0.497-5.036,1.234c-1.05,1.73-0.497,3.986,1.233,5.036l4.121,2.499
		c1.729,1.05,3.985,0.498,5.035-1.233c1.051-1.731,0.497-3.987-1.232-5.037L1169.802-172.537z"/>
	<path fill="#FFFFFF" d="M1159.758-174.34c1.05-1.731,0.497-3.987-1.233-5.037l-3.127-1.896c-1.729-1.05-3.986-0.497-5.035,1.233
		c-1.051,1.731-0.498,3.986,1.232,5.036l3.127,1.896C1156.451-172.058,1158.708-172.61,1159.758-174.34L1159.758-174.34z"/>
</g>
<path fill="#FFFFFF" d="M877.27-128.209l-23.516-5.117l1.792-8.232c1.407-6.474-2.714-12.888-9.188-14.297
	c-6.473-1.409-12.889,2.713-14.297,9.188l-1.792,8.231l-80.018-17.413l1.792-8.231c1.408-6.473-2.713-12.888-9.188-14.297
	c-6.473-1.409-12.888,2.713-14.297,9.187l-1.956,8.99l-2.234-1.175c-0.218-0.115-0.446-0.202-0.688-0.254l-18.087-3.937
	c-11.48-2.498-22.854,4.812-25.354,16.291l-16.827,77.324c-0.319,1.471,0.612,2.922,2.083,3.243
	c1.472,0.319,2.922-0.613,3.243-2.083l11.999-55.143l165.533,36.022c1.472,0.32,2.923-0.612,3.242-2.083s-0.611-2.923-2.083-3.243
	l-165.533-36.021l3.668-16.857c1.859-8.545,10.322-13.983,18.867-12.123l18.087,3.937c0.242,0.052,0.488,0.067,0.734,0.054
	l2.517-0.136l-1.808,8.305c-1.408,6.474,2.714,12.889,9.188,14.298c6.473,1.408,12.889-2.714,14.297-9.187l1.645-7.552
	l80.019,17.413l-1.644,7.551c-1.409,6.475,2.713,12.89,9.187,14.298c6.474,1.407,12.89-2.714,14.298-9.188l1.644-7.551l23.517,5.117
	c8.545,1.858,13.982,10.321,12.123,18.866L850.697,68.489c-1.206,5.542-6.694,9.069-12.238,7.863
	c-5.543-1.207-9.068-6.694-7.862-12.237l2.556-11.744c0.319-1.472-0.612-2.922-2.084-3.242l-52.805-11.491
	c-1.472-0.32-2.923,0.612-3.242,2.083c-0.32,1.471,0.612,2.922,2.083,3.243l50.143,10.912l-1.977,9.08
	c-0.556,2.549-0.471,5.176,0.253,7.683l0.893,3.094L640.536,33.283c-5.542-1.205-9.067-6.693-7.86-12.234l1.977-9.083l103.484,22.52
	c1.471,0.32,2.922-0.612,3.241-2.084c0.32-1.471-0.611-2.922-2.083-3.241l-50.412-10.971l4.548-2.465
	c9.282-5.031,15.896-13.767,18.146-24.1c4.241-19.49-8.166-38.799-27.656-43.04c-19.489-4.241-38.799,8.166-43.04,27.656
	c-2.249,10.333,0.138,21.026,6.49,29.46l3.112,4.132l-17.334-3.772c-1.471-0.319-2.922,0.612-3.242,2.083l-2.556,11.747
	c-1.845,8.477,3.552,16.875,12.027,18.72L837.301,81.68c8.479,1.846,16.879-3.553,18.724-12.029l37.539-172.503
	C896.06-114.337,888.75-125.711,877.27-128.209L877.27-128.209z M742.123-144.132c-0.77,3.539-4.272,5.79-7.813,5.02
	c-3.539-0.77-5.79-4.273-5.02-7.813l4.594-21.109c0.771-3.539,4.273-5.79,7.813-5.021c3.539,0.771,5.79,4.273,5.021,7.813
	L742.123-144.132L742.123-144.132z M845.627-121.608c-0.771,3.539-4.273,5.79-7.813,5.021c-3.538-0.771-5.79-4.274-5.02-7.813
	l4.594-21.108c0.77-3.539,4.272-5.79,7.813-5.021c3.538,0.771,5.79,4.273,5.021,7.813L845.627-121.608L845.627-121.608z
	 M646.204-22.606c3.604-16.555,20-27.091,36.556-23.487c16.555,3.603,27.092,20,23.488,36.555
	c-3.603,16.555-20,27.092-36.556,23.489C653.138,10.346,642.602-6.051,646.204-22.606L646.204-22.606z M693.191-22.578
	c0.813,1.267,0.447,2.952-0.819,3.766L670.462-4.733c-0.608,0.392-1.348,0.523-2.054,0.37c-0.706-0.154-1.321-0.582-1.713-1.189
	l-6.465-10.061c-0.813-1.267-0.447-2.953,0.82-3.766c1.267-0.814,2.952-0.448,3.766,0.818l4.991,7.768l19.617-12.605
	C690.692-24.212,692.375-23.846,693.191-22.578L693.191-22.578z M754.837-80.682c8.476,1.845,13.873,10.243,12.027,18.72
	c-1.845,8.476-10.243,13.873-18.72,12.027c-8.475-1.845-13.873-10.243-12.028-18.72C737.962-77.129,746.361-82.526,754.837-80.682
	L754.837-80.682z M749.305-55.26c-5.541-1.206-9.067-6.693-7.861-12.234s6.693-9.067,12.234-7.861
	c5.542,1.206,9.066,6.693,7.861,12.234C760.332-57.579,754.846-54.055,749.305-55.26L749.305-55.26z M839.575-62.241
	c8.478,1.845,13.873,10.244,12.028,18.72c-1.845,8.477-10.243,13.873-18.72,12.028s-13.872-10.244-12.027-18.719
	C822.7-58.688,831.101-64.085,839.575-62.241L839.575-62.241z M834.044-36.819c-5.541-1.206-9.067-6.692-7.861-12.233
	s6.693-9.067,12.234-7.861c5.542,1.206,9.066,6.692,7.86,12.233C845.073-39.139,839.586-35.614,834.044-36.819L834.044-36.819z
	 M797.205-71.461c8.478,1.845,13.873,10.244,12.028,18.72s-10.243,13.873-18.719,12.028s-13.873-10.243-12.028-18.72
	C780.332-67.909,788.73-73.305,797.205-71.461L797.205-71.461z M791.674-46.039c-5.541-1.206-9.066-6.693-7.86-12.234
	c1.205-5.542,6.692-9.067,12.233-7.861c5.542,1.205,9.067,6.692,7.861,12.233C802.703-48.36,797.216-44.834,791.674-46.039
	L791.674-46.039z M712.468-89.901c8.476,1.845,13.873,10.244,12.027,18.72c-1.845,8.477-10.243,13.872-18.72,12.028
	c-8.476-1.844-13.873-10.243-12.027-18.719C695.593-86.35,703.991-91.745,712.468-89.901L712.468-89.901z M706.936-64.479
	c-5.541-1.206-9.067-6.692-7.861-12.233c1.206-5.542,6.693-9.067,12.234-7.861c5.542,1.206,9.067,6.693,7.861,12.234
	C717.964-66.8,712.477-63.274,706.936-64.479L706.936-64.479z M829.303-15.029c8.476,1.844,13.873,10.243,12.027,18.719
	c-1.845,8.477-10.242,13.873-18.72,12.028c-8.476-1.845-13.873-10.243-12.028-18.719C812.428-11.478,820.825-16.874,829.303-15.029
	L829.303-15.029z M823.77,10.393c-5.542-1.206-9.067-6.692-7.861-12.234c1.205-5.541,6.693-9.067,12.234-7.861
	s9.067,6.693,7.861,12.234S829.312,11.598,823.77,10.393L823.77,10.393z M786.933-24.249c8.476,1.844,13.872,10.243,12.028,18.719
	c-1.846,8.476-10.243,13.873-18.721,12.028c-8.476-1.844-13.873-10.243-12.027-18.719C770.058-20.697,778.457-26.094,786.933-24.249
	L786.933-24.249z M781.4,1.173c-5.541-1.206-9.067-6.693-7.86-12.234c1.205-5.542,6.692-9.066,12.233-7.86s9.067,6.692,7.861,12.233
	C792.429-1.148,786.941,2.378,781.4,1.173L781.4,1.173z M744.563-33.471c8.476,1.846,13.873,10.244,12.028,18.72
	c-1.846,8.476-10.243,13.873-18.72,12.027c-8.476-1.844-13.873-10.243-12.027-18.719C727.688-29.917,736.087-35.314,744.563-33.471
	L744.563-33.471z M739.031-8.048c-5.541-1.206-9.066-6.693-7.86-12.234s6.692-9.067,12.233-7.861
	c5.542,1.206,9.067,6.693,7.862,12.234C750.06-10.367,744.572-6.842,739.031-8.048L739.031-8.048z M762.684,35.058
	c0.386,0.603,0.525,1.355,0.373,2.054c-0.152,0.699-0.593,1.332-1.194,1.72c-0.598,0.385-1.354,0.516-2.048,0.364
	c-0.695-0.15-1.329-0.584-1.713-1.184c-0.387-0.604-0.523-1.357-0.371-2.059c0.152-0.699,0.591-1.327,1.192-1.715
	c0.599-0.386,1.354-0.516,2.049-0.364C761.666,34.025,762.3,34.458,762.684,35.058L762.684,35.058z M870.438-89.416
	c0.386,0.6,0.523,1.355,0.371,2.053c-0.151,0.696-0.591,1.327-1.19,1.712c-0.599,0.385-1.354,0.522-2.052,0.371
	c-0.696-0.152-1.327-0.591-1.713-1.19c-0.386-0.599-0.521-1.355-0.37-2.052s0.591-1.328,1.189-1.713
	c0.6-0.385,1.355-0.521,2.053-0.371C869.423-90.455,870.054-90.016,870.438-89.416z"/>
</svg>
